<svg width="16" height="15" viewBox="0 0 16 15" fill="none" xmlns="http://www.w3.org/2000/svg">
<path d="M4.14375 8.3125C4.14375 6.18621 5.87371 4.45625 8 4.45625C10.1263 4.45625 11.8562 6.18621 11.8562 8.3125C11.8562 10.4388 10.1263 12.1687 8 12.1687C5.87371 12.1687 4.14375 10.4388 4.14375 8.3125ZM5.29375 8.3125C5.29375 9.80477 6.50773 11.0188 8 11.0188C9.49227 11.0188 10.7063 9.80477 10.7063 8.3125C10.7063 6.82023 9.49227 5.60625 8 5.60625C6.50773 5.60625 5.29375 6.82023 5.29375 8.3125Z" fill="#2CAC6E" stroke="white" stroke-width="0.1"/>
<path d="M11.6085 2.44877L11.6085 2.44878L11.6094 2.45053C11.6518 2.53122 11.7344 2.58125 11.8258 2.58125H14.125C15.1313 2.58125 15.95 3.39999 15.95 4.40625V12.8438C15.95 13.85 15.1313 14.6687 14.125 14.6687H1.875C0.868739 14.6687 0.05 13.85 0.05 12.8438V4.40625C0.05 3.39999 0.868739 2.58125 1.875 2.58125H4.21875C4.31012 2.58125 4.39271 2.53123 4.43509 2.45065L4.43513 2.45067L4.43599 2.44886L5.07207 1.11224L5.07212 1.11214L5.07688 1.10242L5.07704 1.10211C5.31478 0.626519 5.79253 0.33125 6.32425 0.33125H9.72028C10.252 0.33125 10.7297 0.626519 10.9675 1.10208L10.9677 1.10238L10.9724 1.11211L10.9725 1.11221L11.6085 2.44877ZM5.46612 2.96014L5.46597 2.96045C5.22819 3.43601 4.75044 3.73125 4.21875 3.73125H1.875C1.50276 3.73125 1.2 4.03401 1.2 4.40625V12.8437C1.2 13.216 1.50276 13.5187 1.875 13.5187H14.125C14.4972 13.5187 14.8 13.216 14.8 12.8437V4.40622C14.8 4.03398 14.4972 3.73122 14.125 3.73122H11.8258C11.2941 3.73122 10.8163 3.43598 10.5786 2.96042L10.5784 2.96012L10.5736 2.95036L10.5734 2.94994L9.93749 1.61364L9.93753 1.61362L9.9366 1.61186C9.89425 1.53127 9.81165 1.48125 9.72028 1.48125H6.32425C6.23288 1.48125 6.15028 1.53128 6.10792 1.6119L6.10789 1.61189L6.10704 1.61367L5.47111 2.94997L5.47091 2.95039L5.46612 2.96014Z" fill="#2CAC6E" stroke="white" stroke-width="0.1"/>
<path d="M12.3 6.23125V5.08125H13.45V6.23125H12.3Z" fill="#2CAC6E" stroke="white" stroke-width="0.1"/>
</svg>
