<svg width="14" height="14" viewBox="0 0 14 14" fill="none" xmlns="http://www.w3.org/2000/svg">
<path d="M14.0707 13.4521L14.1414 13.3814L14.0707 13.3106L9.39047 8.6304C10.1448 7.70834 10.6 6.532 10.6 5.25001C10.6 2.29975 8.20024 -0.1 5.25001 -0.1C2.29977 -0.1 -0.1 2.29975 -0.1 5.25001C-0.1 8.20026 2.29975 10.6 5.25001 10.6C6.532 10.6 7.70834 10.1448 8.6304 9.39047L13.3106 14.0707L13.3814 14.1414L13.4521 14.0707L14.0707 13.4521ZM5.25001 9.525C2.893 9.525 0.975009 7.60701 0.975009 5.25001C0.975009 2.893 2.893 0.975009 5.25001 0.975009C7.60701 0.975009 9.525 2.893 9.525 5.25001C9.525 7.60701 7.60701 9.525 5.25001 9.525Z" fill="#49CA84" stroke="#49CA84" stroke-width="0.2"/>
</svg>
