<svg width="140" height="12" viewBox="0 0 140 12" fill="none" xmlns="http://www.w3.org/2000/svg">
<path d="M89.9241 11.0666C87.323 10.3498 85.8366 8.19916 86.0224 5.33171C86.0224 2.82269 87.8804 0.672059 90.2957 0.134412C91.2246 -0.0448039 92.3394 -0.0448039 93.2684 0.134412C95.8695 0.851274 97.7274 3.1811 97.3558 5.86933C97.1701 8.73678 95.4979 10.8874 92.711 11.2458C91.782 11.425 90.8531 11.4251 89.9241 11.0666ZM95.6837 5.69016C95.6837 3.53957 94.0116 1.92661 91.9678 1.7474C89.9241 1.56818 88.0661 3.36034 87.8804 5.33171V5.69016C87.8804 7.84075 89.5525 9.45371 91.5962 9.63293C93.64 9.81214 95.4979 8.01999 95.6837 6.04862V5.69016Z" fill="black"/>
<path d="M1.67214 3.89608V11.0652H0V0.132236C0.371585 0.311464 5.20219 4.79224 7.4317 6.94298L7.98909 7.48064V0.490714H9.66122V11.4237C9.28964 11.2444 4.64482 6.76366 2.41531 4.61293C2.04372 4.25447 1.85793 4.07531 1.67214 3.89608Z" fill="black"/>
<path d="M31.9559 7.84052V11.0664H30.2837V0.313343C32.3274 0.313343 34.3712 0.313343 36.2291 0.313343C38.4586 0.492561 39.3876 2.10554 39.3876 4.25616C39.2018 6.22756 37.7155 7.48202 35.3001 7.66124C34.1854 7.84045 33.0706 7.84052 31.9559 7.84052ZM31.9559 1.92624V6.22751C33.0706 6.22751 34.1854 6.22751 35.3001 6.22751C36.4149 6.22751 37.3439 5.33142 37.3439 4.43533V4.25616C37.5296 3.18085 36.6007 2.28474 35.6717 2.10552H35.4859C34.1854 1.9263 33.0706 1.92624 31.9559 1.92624Z" fill="black"/>
<path d="M104.602 3.89783V11.067H102.93V0.133961C103.301 0.31319 108.503 5.15237 110.919 7.30312V0.313255H112.777V11.2462C112.405 11.0669 107.76 6.5862 105.531 4.61468L104.602 3.89783Z" fill="black"/>
<path d="M133.771 11.0665V1.92625H130.055V0.313343H139.159V1.92625H135.629V11.2456H133.771V11.0665Z" fill="black"/>
<path d="M123.366 11.0664V0.313343H125.038V11.0664H123.366Z" fill="black"/>
<path d="M81.5633 0.313343V1.92625H75.0606V4.97298H80.4485V6.586H75.0606V9.63274H81.5633V11.2456H73.2026V0.492518H81.5633V0.313343Z" fill="black"/>
<path d="M60.5686 0.313343H62.2407V9.45341H68.1861V11.0664H60.3828V0.313343H60.5686Z" fill="black"/>
<path d="M47.5632 11.0666C45.1479 10.3498 43.4757 8.19916 43.6615 5.33171C43.6615 2.82269 45.5195 0.672059 47.9348 0.134412C48.8637 -0.0448039 49.9785 -0.0448039 50.9075 0.134412C53.5086 0.851274 55.3665 3.1811 54.9949 5.86933C54.8091 8.73678 53.137 10.8874 50.3501 11.2458C49.6069 11.425 48.4922 11.4251 47.5632 11.0666ZM53.3228 5.69016C53.3228 3.53957 51.6507 1.92661 49.6069 1.7474C47.5632 1.56818 45.7053 3.36034 45.5195 5.33171V5.69016C45.5195 7.84075 47.1916 9.45371 49.2354 9.63293C51.2791 9.81214 53.137 8.01999 53.3228 6.04862V5.69016Z" fill="black"/>
<path d="M25.6393 11.2463C25.2677 10.5293 19.8797 0.313343 19.8797 0.313343C19.8797 0.313343 16.907 5.8694 15.0491 9.45397L14.1201 11.4256H16.3496L17.0928 9.63327H22.6666L23.4098 11.4256L25.6393 11.2463ZM17.836 8.02016L19.8797 3.53944L21.9234 8.02016H17.836Z" fill="black"/>
</svg>
