<svg width="17" height="17" viewBox="0 0 17 17" fill="none" xmlns="http://www.w3.org/2000/svg">
<path d="M6.5521 7.96877C6.25885 7.96877 6.02085 7.73077 6.02085 7.43752C6.02085 7.04723 5.70352 6.72919 5.31252 6.72919C4.92152 6.72919 4.60419 7.04723 4.60419 7.43752C4.60419 7.73077 4.36619 7.96877 4.07294 7.96877C3.77969 7.96877 3.54169 7.73077 3.54169 7.43752C3.54169 6.46144 4.33573 5.66669 5.31252 5.66669C6.28931 5.66669 7.08335 6.46144 7.08335 7.43752C7.08335 7.73077 6.84535 7.96877 6.5521 7.96877Z" fill="#2CAC6E"/>
<path d="M12.9271 7.96877C12.6339 7.96877 12.3959 7.73077 12.3959 7.43752C12.3959 7.04723 12.0785 6.72919 11.6875 6.72919C11.2965 6.72919 10.9792 7.04723 10.9792 7.43752C10.9792 7.73077 10.7412 7.96877 10.4479 7.96877C10.1547 7.96877 9.91669 7.73077 9.91669 7.43752C9.91669 6.46144 10.7107 5.66669 11.6875 5.66669C12.6643 5.66669 13.4584 6.46144 13.4584 7.43752C13.4584 7.73077 13.2204 7.96877 12.9271 7.96877Z" fill="#2CAC6E"/>
<path d="M8.50001 12.75C6.95301 12.75 5.49951 12.1479 4.40584 11.0536C4.1983 10.846 4.1983 10.5096 4.40584 10.302C4.61338 10.0945 4.94984 10.0945 5.15738 10.302C6.04988 11.1959 7.23705 11.6875 8.50001 11.6875C9.76296 11.6875 10.9501 11.1959 11.8433 10.3027C12.0509 10.0952 12.3873 10.0952 12.5949 10.3027C12.8024 10.5103 12.8024 10.8467 12.5949 11.0543C11.5005 12.1479 10.047 12.75 8.50001 12.75Z" fill="#2CAC6E"/>
<circle cx="8.5" cy="8.5" r="8" stroke="#2CAC6E"/>
</svg>
